<svg width="24" height="24" viewBox="0 0 24 24" fill="none" xmlns="http://www.w3.org/2000/svg">
<circle cx="12" cy="12" r="12" fill="#751A20"/>
<path d="M7.5 5.25C6.57469 5.25 5.8125 6.01219 5.8125 6.9375V11.6659C5.37937 11.4156 5.04131 11.1911 4.96875 11.1911C4.76625 11.1911 4.6875 11.3846 4.6875 11.5078C4.6875 12.1384 6.564 13.3534 7.74637 13.7933C7.74637 13.7933 7.44712 14.6651 7.44712 15.6562C7.44712 16.6474 8.058 18.75 9.99638 18.75C9.99638 18.75 11.4375 18.7455 11.4375 17.3263V14.5312L12.5625 14.8654V17.3263C12.5625 18.7455 14.0042 18.75 14.0042 18.75C15.942 18.75 16.5523 16.6474 16.5523 15.6562C16.5523 14.6651 16.2542 13.7927 16.2542 13.7927C17.436 13.3539 19.3125 12.1389 19.3125 11.5078C19.3125 11.3846 19.2338 11.1911 19.0312 11.1911C18.9587 11.1911 18.6206 11.4156 18.1875 11.6659V6.9375C18.1875 6.01219 17.4253 5.25 16.5 5.25H7.5ZM7.5 6.375H16.5C16.8184 6.375 17.0625 6.61913 17.0625 6.9375V12.2284C16.4364 12.4899 15.7136 12.7031 14.9706 12.7031C14.1493 12.7031 13.6324 12.6502 13.2831 12.6502C12.6064 12.6502 12.5625 13.3714 12.5625 13.3714V13.881L11.244 12.8786C11.1388 12.7538 10.9695 12.6502 10.7169 12.6502C10.3676 12.6502 9.85069 12.7031 9.02944 12.7031C8.28694 12.7031 7.56356 12.4899 6.9375 12.2284V6.9375C6.9375 6.61913 7.18162 6.375 7.5 6.375ZM9.92606 9.17006C9.09525 9.17006 8.4315 9.81356 8.4315 10.5938C8.4315 11.3739 9.09525 12 9.9255 12C10.7569 12 11.4375 11.3739 11.4375 10.5938C11.4375 9.81356 10.7574 9.17006 9.92606 9.17006ZM14.0739 9.17006C13.2443 9.17006 12.5625 9.81356 12.5625 10.5938C12.5625 11.3739 13.2431 12 14.0745 12C14.9047 12 15.5685 11.3739 15.5685 10.5938C15.5685 9.81356 14.9047 9.17006 14.0739 9.17006Z" fill="white"/>
</svg>
