<svg width="49" height="48" viewBox="0 0 49 48" fill="none" xmlns="http://www.w3.org/2000/svg">
<path d="M15.3333 23V19H33.3333V23H15.3333ZM8.33329 6C7.45279 6.00004 6.5969 6.2906 5.89836 6.82664C5.19982 7.36267 4.69766 8.11421 4.46977 8.96471C4.24187 9.81521 4.30098 10.7171 4.63791 11.5306C4.97484 12.3441 5.57077 13.0237 6.33329 13.464V40.5C6.33329 41.328 7.00529 42 7.83329 42H12.3333V31.5C12.3333 31.1022 12.4913 30.7207 12.7726 30.4393C13.0539 30.158 13.4355 30 13.8333 30H21.8333C22.2311 30 22.6126 30.158 22.8939 30.4393C23.1753 30.7207 23.3333 31.1022 23.3333 31.5V32C24.2453 30.786 25.6973 30 27.3333 30H42.3333V13.464C43.0958 13.0237 43.6917 12.3441 44.0287 11.5306C44.3656 10.7171 44.4247 9.81521 44.1968 8.96471C43.9689 8.11421 43.4668 7.36267 42.7682 6.82664C42.0697 6.2906 41.2138 6.00004 40.3333 6H8.33329ZM7.33329 10C7.33329 9.73478 7.43865 9.48043 7.62618 9.29289C7.81372 9.10536 8.06807 9 8.33329 9H40.3333C40.5985 9 40.8529 9.10536 41.0404 9.29289C41.2279 9.48043 41.3333 9.73478 41.3333 10C41.3333 10.2652 41.2279 10.5196 41.0404 10.7071C40.8529 10.8946 40.5985 11 40.3333 11H8.33329C8.06807 11 7.81372 10.8946 7.62618 10.7071C7.43865 10.5196 7.33329 10.2652 7.33329 10ZM13.8333 16H34.8333C35.2311 16 35.6126 16.158 35.8939 16.4393C36.1753 16.7206 36.3333 17.1022 36.3333 17.5V24.5C36.3333 24.8978 36.1753 25.2794 35.8939 25.5607C35.6126 25.842 35.2311 26 34.8333 26H13.8333C13.4355 26 13.0539 25.842 12.7726 25.5607C12.4913 25.2794 12.3333 24.8978 12.3333 24.5V17.5C12.3333 17.1022 12.4913 16.7206 12.7726 16.4393C13.0539 16.158 13.4355 16 13.8333 16ZM20.3333 33V42H15.3333V33H20.3333ZM24.3333 35C24.3333 34.2044 24.6494 33.4413 25.212 32.8787C25.7746 32.3161 26.5376 32 27.3333 32H43.3333C44.1289 32 44.892 32.3161 45.4546 32.8787C46.0172 33.4413 46.3333 34.2044 46.3333 35V43C46.3333 43.7957 46.0172 44.5587 45.4546 45.1213C44.892 45.6839 44.1289 46 43.3333 46H27.3333C26.5376 46 25.7746 45.6839 25.212 45.1213C24.6494 44.5587 24.3333 43.7957 24.3333 43V35ZM44.3333 36C43.8029 36 43.2941 35.7893 42.9191 35.4142C42.544 35.0391 42.3333 34.5304 42.3333 34H40.3333C40.3333 35.0609 40.7547 36.0783 41.5049 36.8284C42.255 37.5786 43.2724 38 44.3333 38V36ZM44.3333 40C43.2724 40 42.255 40.4214 41.5049 41.1716C40.7547 41.9217 40.3333 42.9391 40.3333 44H42.3333C42.3333 43.4696 42.544 42.9609 42.9191 42.5858C43.2941 42.2107 43.8029 42 44.3333 42V40ZM28.3333 34C28.3333 34.5304 28.1226 35.0391 27.7475 35.4142C27.3724 35.7893 26.8637 36 26.3333 36V38C27.3942 38 28.4116 37.5786 29.1617 36.8284C29.9119 36.0783 30.3333 35.0609 30.3333 34H28.3333ZM30.3333 44C30.3333 42.9391 29.9119 41.9217 29.1617 41.1716C28.4116 40.4214 27.3942 40 26.3333 40V42C26.8637 42 27.3724 42.2107 27.7475 42.5858C28.1226 42.9609 28.3333 43.4696 28.3333 44H30.3333ZM38.8333 39C38.8333 38.0718 38.4645 37.1815 37.8082 36.5251C37.1518 35.8688 36.2615 35.5 35.3333 35.5C34.405 35.5 33.5148 35.8688 32.8584 36.5251C32.202 37.1815 31.8333 38.0718 31.8333 39C31.8333 39.9283 32.202 40.8185 32.8584 41.4749C33.5148 42.1313 34.405 42.5 35.3333 42.5C36.2615 42.5 37.1518 42.1313 37.8082 41.4749C38.4645 40.8185 38.8333 39.9283 38.8333 39Z" fill="#962129"/>
</svg>
