<svg width="24" height="24" viewBox="0 0 24 24" fill="none" xmlns="http://www.w3.org/2000/svg">
<circle cx="12" cy="12" r="12" fill="#751A20"/>
<path d="M11.3681 12.0004C11.3681 12.9102 11.0067 13.7826 10.3634 14.4259C9.72013 15.0692 8.84766 15.4306 7.93794 15.4306C7.02821 15.4306 6.15575 15.0692 5.51247 14.4259C4.8692 13.7826 4.50781 12.9102 4.50781 12.0004C4.50781 11.0907 4.8692 10.2182 5.51247 9.57497C6.15575 8.9317 7.02821 8.57031 7.93794 8.57031C8.84766 8.57031 9.72013 8.9317 10.3634 9.57497C11.0067 10.2182 11.3681 11.0907 11.3681 12.0004ZM19.4928 12.0004C19.4928 12.9102 19.1314 13.7826 18.4882 14.4259C17.8449 15.0692 16.9724 15.4306 16.0627 15.4306C15.153 15.4306 14.2805 15.0692 13.6372 14.4259C12.9939 13.7826 12.6326 12.9102 12.6326 12.0004C12.6326 11.0907 12.9939 10.2182 13.6372 9.57497C14.2805 8.9317 15.153 8.57031 16.0627 8.57031C16.9724 8.57031 17.8449 8.9317 18.4882 9.57497C19.1314 10.2182 19.4928 11.0907 19.4928 12.0004Z" fill="white"/>
</svg>
