<svg width="24" height="24" viewBox="0 0 24 24" fill="none" xmlns="http://www.w3.org/2000/svg">
<circle cx="12" cy="12" r="12" fill="#751A20"/>
<path d="M11.9992 4.50195C7.85775 4.50195 4.5 7.8597 4.5 12.0012C4.5 15.7437 7.242 18.8457 10.8277 19.4105V14.1695H8.92275V12.0012H10.8277V10.349C10.8277 8.46795 11.9475 7.4307 13.6597 7.4307C14.4802 7.4307 15.3397 7.57695 15.3397 7.57695V9.4212H14.3917C13.4617 9.4212 13.1707 10.0002 13.1707 10.5935V11.9997H15.249L14.9167 14.168H13.1707V19.409C16.7565 18.8472 19.4985 15.7445 19.4985 12.0012C19.4985 7.8597 16.1407 4.50195 11.9992 4.50195Z" fill="white"/>
</svg>
