<svg width="24" height="24" viewBox="0 0 24 24" fill="none" xmlns="http://www.w3.org/2000/svg">
<circle cx="12" cy="12" r="12" fill="#751A20"/>
<path d="M6.73475 8.39723C7.64105 8.39723 8.37575 7.66253 8.37575 6.75623C8.37575 5.84993 7.64105 5.11523 6.73475 5.11523C5.82845 5.11523 5.09375 5.84993 5.09375 6.75623C5.09375 7.66253 5.82845 8.39723 6.73475 8.39723Z" fill="white"/>
<path d="M9.92681 9.64102V18.7453H12.7536V14.243C12.7536 13.055 12.9771 11.9045 14.4501 11.9045C15.9028 11.9045 15.9208 13.2628 15.9208 14.318V18.746H18.7491V13.7533C18.7491 11.3008 18.2211 9.41602 15.3546 9.41602C13.9783 9.41602 13.0558 10.1713 12.6786 10.886H12.6403V9.64102H9.92681ZM5.32031 9.64102H8.15156V18.7453H5.32031V9.64102Z" fill="white"/>
</svg>
