<svg width="24" height="24" viewBox="0 0 24 24" fill="none" xmlns="http://www.w3.org/2000/svg">
<circle cx="12" cy="12" r="12" fill="#751A20"/>
<path d="M9.78 19.155C10.5 19.3725 11.2275 19.5 12 19.5C13.9891 19.5 15.8968 18.7098 17.3033 17.3033C18.7098 15.8968 19.5 13.9891 19.5 12C19.5 11.0151 19.306 10.0398 18.9291 9.12987C18.5522 8.21993 17.9997 7.39314 17.3033 6.6967C16.6069 6.00026 15.7801 5.44781 14.8701 5.0709C13.9602 4.69399 12.9849 4.5 12 4.5C11.0151 4.5 10.0398 4.69399 9.12987 5.0709C8.21993 5.44781 7.39314 6.00026 6.6967 6.6967C5.29018 8.10322 4.5 10.0109 4.5 12C4.5 15.1875 6.5025 17.925 9.33 19.005C9.2625 18.42 9.195 17.4525 9.33 16.785L10.1925 13.08C10.1925 13.08 9.975 12.645 9.975 11.955C9.975 10.92 10.62 10.1475 11.355 10.1475C12 10.1475 12.3 10.62 12.3 11.2275C12.3 11.8725 11.8725 12.795 11.655 13.68C11.5275 14.415 12.045 15.06 12.795 15.06C14.13 15.06 15.165 13.635 15.165 11.625C15.165 9.825 13.875 8.595 12.0225 8.595C9.9075 8.595 8.6625 10.17 8.6625 11.8275C8.6625 12.4725 8.8725 13.125 9.2175 13.5525C9.285 13.5975 9.285 13.6575 9.2625 13.77L9.045 14.5875C9.045 14.715 8.9625 14.76 8.835 14.67C7.875 14.25 7.32 12.885 7.32 11.7825C7.32 9.4125 9 7.26 12.24 7.26C14.82 7.26 16.83 9.1125 16.83 11.5725C16.83 14.1525 15.2325 16.2225 12.945 16.2225C12.2175 16.2225 11.505 15.8325 11.25 15.375L10.7475 17.1525C10.575 17.7975 10.1025 18.66 9.78 19.1775V19.155Z" fill="white"/>
</svg>
