<svg width="24" height="24" viewBox="0 0 24 24" fill="none" xmlns="http://www.w3.org/2000/svg">
<circle cx="12" cy="12" r="12" fill="#751A20"/>
<path d="M19.1974 8.40226C19.112 8.08531 18.9451 7.79626 18.7132 7.56388C18.4814 7.3315 18.1927 7.1639 17.8759 7.07776C16.7014 6.75526 12.0027 6.75001 12.0027 6.75001C12.0027 6.75001 7.30469 6.74476 6.12944 7.05301C5.81288 7.14312 5.5248 7.31309 5.29286 7.54661C5.06092 7.78012 4.8929 8.06935 4.80494 8.38651C4.49519 9.56101 4.49219 11.997 4.49219 11.997C4.49219 11.997 4.48919 14.445 4.79669 15.6075C4.96919 16.2503 5.47544 16.758 6.11894 16.9313C7.30544 17.2538 11.9914 17.259 11.9914 17.259C11.9914 17.259 16.6902 17.2643 17.8647 16.9568C18.1816 16.8708 18.4705 16.7035 18.7029 16.4716C18.9354 16.2397 19.1032 15.9512 19.1899 15.6345C19.5004 14.4608 19.5027 12.0255 19.5027 12.0255C19.5027 12.0255 19.5177 9.57676 19.1974 8.40226ZM10.4997 14.2538L10.5034 9.75376L14.4087 12.0075L10.4997 14.2538Z" fill="white"/>
</svg>
