<svg width="48" height="48" viewBox="0 0 48 48" fill="none" xmlns="http://www.w3.org/2000/svg">
<path d="M36.64 11.3601C35.92 12.0801 35.86 13.2001 36.5 14.0001C39.4 17.6401 40.92 22.6201 39.56 27.8401C37.98 33.9401 33.2 38.5001 27.14 39.7201C16.94 41.7401 8 33.8601 8 24.0001C8 15.8401 14.1 9.1201 22 8.1401V12.1801C18.8912 12.7045 16.1138 14.4317 14.2686 16.988C12.4234 19.5444 11.6588 22.7243 12.14 25.8401C12.92 31.0601 17.26 35.2601 22.5 35.9001C24.7871 36.187 27.1085 35.8091 29.1865 34.8116C31.2646 33.8141 33.0113 32.2392 34.218 30.2752C35.4246 28.3112 36.0401 26.0413 35.9908 23.7368C35.9415 21.4322 35.2295 19.1907 33.94 17.2801C33.26 16.2801 31.8 16.2201 30.94 17.0601L30.92 17.0801C30.24 17.7601 30.18 18.8201 30.7 19.6201C31.9 21.4601 32.38 23.8201 31.68 26.2601C31.2815 27.6232 30.5265 28.8553 29.4929 29.8292C28.4592 30.803 27.1844 31.4834 25.8 31.8001C24.6269 32.071 23.4077 32.0736 22.2335 31.8078C21.0592 31.5419 19.9601 31.0144 19.018 30.2646C18.076 29.5148 17.3153 28.5621 16.7928 27.4774C16.2702 26.3927 15.9992 25.2041 16 24.0001C16 20.2801 18.56 17.1801 22 16.2801V20.5601C20.8 21.2601 20 22.5201 20 24.0001C20 26.2001 21.8 28.0001 24 28.0001C26.2 28.0001 28 26.2001 28 24.0001C28 22.5201 27.2 21.2401 26 20.5601V5.4201C26 4.6401 25.36 4.0001 24.58 4.0001C13.86 3.6001 4.62 12.1201 4.04 22.8001C3.32 35.9001 14.86 46.4401 28.06 43.6001C35.82 41.9401 41.82 36.0001 43.56 28.2601C44.98 21.9401 43.16 15.9401 39.62 11.5201C39.4439 11.3001 39.2234 11.1199 38.9728 10.9911C38.7222 10.8623 38.4472 10.7879 38.1658 10.7728C37.8845 10.7577 37.6031 10.8022 37.3402 10.9034C37.0772 11.0046 36.8386 11.1603 36.64 11.3601Z" fill="#962129"/>
</svg>
